<?xml version="1.0" encoding="utf-8"?>
<!-- Generator: Adobe Illustrator 25.4.6, SVG Export Plug-In . SVG Version: 6.00 Build 0)  -->
<svg version="1.1" id="Layer_1" xmlns="http://www.w3.org/2000/svg" xmlns:xlink="http://www.w3.org/1999/xlink" x="0px" y="0px"
	 viewBox="0 0 595.28 173.74" style="enable-background:new 0 0 595.28 173.74;" xml:space="preserve">
<style type="text/css">
	.st0{fill:#19132D;}
	.st1{clip-path:url(#SVGID_00000065791454256737919300000004604663447160603038_);}
	.st2{fill:url(#Rectangle_2_00000114785431128358217880000013116294892064333746_);}
	.st3{fill:url(#Path_16_00000116230214582468027010000001193727916035356302_);}
	.st4{enable-background:new    ;}
	.st5{fill:#FFFFFF;}
	.st6{fill:#BF8E44;}
</style>
<g id="Group_6" transform="translate(-417.381 -99.31)">
	<g id="Group_7" transform="translate(417.381 99.31)">
		<g id="Group_4" transform="translate(0 0)">
			<path id="Path_14" class="st0" d="M168.26,87.14c0-6.99-4.23-12.9-8.32-18.62c-2.37-3.06-4.4-6.37-6.05-9.87
				c-1.37-3.79-2.33-7.72-2.87-11.71c-1.18-6.83-2.4-13.89-7.11-18.59s-11.76-5.92-18.59-7.11c-3.99-0.54-7.92-1.5-11.71-2.87
				c-3.5-1.65-6.81-3.68-9.87-6.05C98.02,8.23,92.1,4.01,85.12,4.01s-12.9,4.23-18.63,8.32c-3.05,2.37-6.35,4.4-9.85,6.05
				c-3.79,1.37-7.72,2.33-11.71,2.87c-6.83,1.18-13.89,2.4-18.59,7.11s-5.93,11.76-7.11,18.59c-0.54,3.99-1.5,7.92-2.87,11.71
				c-1.65,3.5-3.67,6.81-6.04,9.87c-4.09,5.72-8.31,11.64-8.31,18.63c0,6.99,4.23,12.9,8.31,18.63c2.37,3.05,4.4,6.36,6.06,9.85
				c1.37,3.79,2.33,7.72,2.87,11.71c1.18,6.83,2.4,13.89,7.11,18.59s11.76,5.92,18.59,7.11c3.99,0.54,7.92,1.5,11.71,2.87
				c3.5,1.65,6.8,3.68,9.85,6.05c5.72,4.09,11.64,8.32,18.63,8.32c6.99,0,12.9-4.23,18.62-8.32c3.06-2.37,6.37-4.4,9.87-6.05
				c3.79-1.37,7.72-2.33,11.71-2.87c6.83-1.18,13.89-2.4,18.59-7.11c4.7-4.71,5.92-11.76,7.11-18.59c0.54-3.99,1.5-7.92,2.87-11.71
				c1.65-3.5,3.68-6.8,6.05-9.85c4.09-5.72,8.32-11.64,8.32-18.63"/>
			<g id="Group_3" transform="translate(1.176 1.176)">
				<g>
					<defs>
						<path id="SVGID_1_" d="M67.58,155.78c-2.47-1.84-5.05-3.52-7.73-5.03c2.2-0.07,4.43-0.32,6.63-0.57
							c3.3-0.5,6.64-0.64,9.97-0.41c3.43,0.56,6.8,1.49,10.03,2.77c4.48,1.95,9.32,2.96,14.21,2.97l-0.38,0.27
							c-5.16,3.69-10.5,7.51-16.37,7.51c-5.87,0-11.2-3.81-16.37-7.51 M87.28,150.27c-2.52-0.94-5.09-1.74-7.7-2.39
							c3.37-0.87,6.61-2.17,9.65-3.88c2.55-1.42,5.26-2.56,8.06-3.39c2.99-0.59,6.03-0.86,9.08-0.8c4.1,0.19,8.2-0.38,12.09-1.7
							c-1.27,1.39-2.47,2.89-3.66,4.35c-3.7,4.56-7.18,8.86-11.97,10.22c-1.15,0.32-2.34,0.47-3.53,0.47
							C95.17,152.86,91.11,151.88,87.28,150.27 M67.9,135.27c2.59-0.26,5.2-0.24,7.78,0.06c2.65,0.57,5.23,1.42,7.7,2.54
							c2.62,1.19,5.36,2.08,8.17,2.67c-1.1,0.51-2.18,1.07-3.26,1.6c-4.45,2.25-9.07,4.57-13.6,3.86c-4.53-0.71-8.24-4.3-11.81-7.79
							c-1.02-1-2.06-2.01-3.12-2.96c1.17,0.15,2.35,0.23,3.52,0.22c1.54,0,3.09-0.1,4.63-0.19 M50.13,146.52
							c-4.59-2.57-7.1-7.89-9.53-13.04c-1.06-2.38-2.27-4.69-3.6-6.93c2.93,1.72,6.07,3.07,9.33,4.02c2.92,0.86,5.75,2.03,8.42,3.49
							c2.42,1.64,4.66,3.53,6.67,5.66c2.83,3.17,6.27,5.75,10.1,7.59c-1.75,0.1-3.53,0.3-5.28,0.5c-2.52,0.33-5.05,0.52-7.59,0.57
							C55.69,148.49,52.76,147.85,50.13,146.52 M116.69,143.99c2.09-2.78,4.47-5.34,7.1-7.62c2.72-1.94,5.64-3.58,8.71-4.88
							c4.63-1.79,8.84-4.52,12.36-8.03c-0.04,0.24-0.08,0.48-0.13,0.72c-1.11,6.44-2.17,12.53-6.1,16.45
							c-3.93,3.92-10.01,4.98-16.45,6.1c-3.24,0.48-6.45,1.19-9.6,2.11c1.43-1.54,2.79-3.2,4.12-4.86 M107.23,132.37
							c1.73-2.09,3.68-3.98,5.81-5.66c2.19-1.41,4.52-2.57,6.96-3.47c2.76-1.01,5.39-2.34,7.84-3.96c-0.45,1.2-0.86,2.42-1.27,3.62
							c-1.64,4.87-3.18,9.47-6.7,12.05c-3.52,2.58-8.37,2.67-13.51,2.77c-1.56,0.03-3.14,0.06-4.7,0.17
							C103.68,136.22,105.54,134.37,107.23,132.37 M45.75,146.73c-6.44-1.12-12.53-2.17-16.46-6.1s-4.98-10.01-6.1-16.45
							c-0.49-3.25-1.19-6.46-2.12-9.61c1.54,1.43,3.2,2.79,4.86,4.13c2.78,2.09,5.34,4.47,7.62,7.1c1.94,2.71,3.58,5.64,4.88,8.71
							c1.79,4.63,4.52,8.84,8.03,12.36L45.75,146.73 M47.01,128.57c-4.87-1.64-9.47-3.18-12.05-6.71
							c-2.58-3.52-2.67-8.37-2.77-13.51c-0.03-1.56-0.06-3.14-0.16-4.7c1.67,2.02,3.51,3.88,5.51,5.56
							c2.09,1.73,3.98,3.68,5.66,5.81c1.41,2.19,2.57,4.52,3.47,6.96c1.01,2.76,2.34,5.39,3.96,7.84
							C49.44,129.38,48.22,128.97,47.01,128.57 M128.57,123.58c0.86-2.92,2.03-5.75,3.5-8.42c1.63-2.42,3.53-4.66,5.66-6.67
							c3.17-2.82,5.75-6.25,7.58-10.07c0.11,1.75,0.3,3.53,0.5,5.28c0.63,5.66,1.28,11.51-1.29,16.1
							c-2.57,4.59-7.89,7.11-13.04,9.54c-2.38,1.06-4.69,2.27-6.93,3.6c1.71-2.93,3.06-6.07,4-9.33 M27.44,116.84
							c-4.56-3.7-8.86-7.18-10.22-11.97c-1.36-4.79,0.48-10.02,2.42-15.55c0.94-2.52,1.73-5.09,2.39-7.7
							c0.87,3.37,2.17,6.61,3.88,9.65c1.42,2.55,2.56,5.26,3.39,8.06c0.59,2.99,0.86,6.03,0.8,9.08c-0.19,4.1,0.38,8.2,1.7,12.09
							C30.4,119.23,28.91,118.03,27.44,116.84 M133.28,102.01c-0.27-2.59-0.25-5.2,0.06-7.78c0.57-2.65,1.42-5.24,2.54-7.71
							c1.19-2.62,2.08-5.35,2.67-8.17c0.51,1.1,1.07,2.18,1.6,3.26c2.24,4.45,4.57,9.07,3.86,13.6s-4.3,8.24-7.79,11.81
							c-1,1.02-2.01,2.06-2.97,3.13c0.28-2.71,0.29-5.45,0.03-8.16 M148.19,103.42c-0.5-3.3-0.64-6.64-0.41-9.97
							c0.56-3.43,1.49-6.8,2.77-10.04c1.95-4.48,2.96-9.32,2.97-14.2l0.27,0.38c3.69,5.16,7.51,10.5,7.51,16.37
							c0,5.87-3.81,11.2-7.51,16.37c-1.84,2.47-3.52,5.05-5.03,7.73c-0.07-2.2-0.32-4.43-0.57-6.63 M14.15,102.34
							c-3.69-5.16-7.51-10.5-7.51-16.37c0-5.87,3.82-11.2,7.51-16.37c1.84-2.47,3.52-5.05,5.03-7.73c0.07,2.2,0.32,4.43,0.57,6.63
							c0.5,3.3,0.64,6.64,0.41,9.97c-0.57,3.43-1.49,6.8-2.77,10.03c-1.95,4.48-2.96,9.32-2.97,14.2l-0.27-0.38 M27.8,90.31
							c-2.25-4.45-4.57-9.07-3.87-13.6s4.31-8.24,7.79-11.81c1-1.02,2.01-2.06,2.96-3.13c-0.28,2.71-0.29,5.44-0.03,8.16
							c0.27,2.59,0.25,5.2-0.06,7.78c-0.57,2.65-1.42,5.23-2.54,7.7c-1.19,2.62-2.08,5.36-2.67,8.17c-0.51-1.1-1.07-2.18-1.6-3.26
							 M142.01,80.68c-1.42-2.55-2.56-5.26-3.38-8.06c-0.59-2.99-0.86-6.04-0.8-9.08c0.19-4.1-0.38-8.2-1.7-12.09
							c1.4,1.26,2.89,2.47,4.35,3.66c4.56,3.69,8.87,7.18,10.22,11.97s-0.48,10.02-2.42,15.56c-0.94,2.52-1.74,5.09-2.38,7.7
							C145.02,86.96,143.72,83.71,142.01,80.68 M130.38,62.71c-2.09-1.73-3.98-3.68-5.66-5.81c-1.41-2.19-2.57-4.52-3.47-6.96
							c-1.01-2.76-2.34-5.39-3.96-7.84c1.2,0.45,2.42,0.86,3.62,1.27c4.87,1.64,9.47,3.18,12.05,6.71
							c2.58,3.52,2.67,8.37,2.76,13.51c0.03,1.56,0.06,3.15,0.17,4.71C134.23,66.26,132.38,64.4,130.38,62.71 M22.12,68.25
							c-0.63-5.66-1.28-11.51,1.29-16.11s7.89-7.1,13.04-9.53c2.38-1.06,4.69-2.26,6.93-3.59c-1.72,2.93-3.07,6.07-4.02,9.33
							c-0.86,2.92-2.03,5.74-3.49,8.42c-1.63,2.42-3.53,4.66-5.66,6.67c-3.17,2.83-5.75,6.26-7.59,10.1
							C22.52,71.78,22.32,70,22.12,68.25 M41.35,49.02c1.64-4.87,3.19-9.47,6.71-12.05c3.52-2.58,8.37-2.67,13.51-2.77
							c1.56-0.03,3.14-0.06,4.7-0.17c-2.02,1.67-3.88,3.51-5.56,5.52c-1.73,2.09-3.68,3.98-5.81,5.66
							c-2.19,1.41-4.52,2.57-6.96,3.47c-2.76,1.01-5.39,2.34-7.84,3.96C40.54,51.45,40.95,50.23,41.35,49.02 M55.32,131.81
							c-3.47-2.17-5.23-6.41-6.93-10.51c-0.95-2.57-2.18-5.03-3.67-7.34c-1.75-2.25-3.74-4.3-5.93-6.12
							c-3.41-3.05-6.62-5.93-7.5-9.71c-0.87-3.78,0.76-7.78,2.48-12c1.17-2.6,2.06-5.31,2.65-8.1c0.33-2.72,0.36-5.47,0.08-8.2
							c-0.27-4.43-0.56-9.01,1.61-12.49c2.17-3.48,6.41-5.23,10.51-6.93c2.57-0.95,5.03-2.18,7.34-3.67
							c2.25-1.75,4.3-3.74,6.12-5.93c3.05-3.4,5.93-6.62,9.71-7.5s7.78,0.76,12.01,2.48c2.6,1.17,5.31,2.06,8.1,2.65
							c2.72,0.33,5.47,0.36,8.2,0.08c4.43-0.27,9.01-0.56,12.48,1.61s5.23,6.42,6.93,10.51c0.95,2.57,2.18,5.03,3.67,7.34
							c1.75,2.25,3.74,4.31,5.93,6.13c3.41,3.05,6.62,5.92,7.5,9.71c0.87,3.78-0.75,7.78-2.48,12.01c-1.17,2.6-2.06,5.31-2.65,8.1
							c-0.33,2.72-0.35,5.47-0.08,8.2c0.27,4.43,0.55,9.01-1.62,12.48s-6.4,5.23-10.51,6.93c-2.57,0.95-5.03,2.18-7.34,3.67
							c-2.25,1.75-4.31,3.74-6.13,5.94c-3.05,3.4-5.92,6.62-9.71,7.5c-3.78,0.87-7.78-0.76-12.01-2.48c-2.6-1.17-5.31-2.06-8.1-2.65
							c-2.72-0.33-5.47-0.35-8.2-0.08c-1.49,0.09-3,0.19-4.48,0.19c-2.78,0.16-5.55-0.46-8-1.8 M92.22,36.62
							c-2.65-0.57-5.23-1.42-7.7-2.54c-2.62-1.19-5.36-2.08-8.17-2.67c1.1-0.51,2.18-1.07,3.26-1.6c4.45-2.25,9.07-4.57,13.6-3.87
							c4.53,0.7,8.24,4.31,11.81,7.79c1.02,0.99,2.06,2.01,3.13,2.96c-2.71-0.28-5.45-0.29-8.16-0.03
							c-1.51,0.09-2.98,0.19-4.39,0.19c-1.14,0.01-2.27-0.07-3.39-0.25 M141.97,53.26c-2.78-2.09-5.34-4.47-7.62-7.1
							c-1.94-2.71-3.58-5.64-4.88-8.71c-1.79-4.63-4.52-8.84-8.03-12.36l0.72,0.13c6.44,1.11,12.53,2.17,16.45,6.1
							c3.92,3.93,4.98,10.01,6.1,16.45c0.49,3.25,1.2,6.46,2.12,9.62C145.29,55.95,143.63,54.59,141.97,53.26 M121.57,41.36
							c-2.92-0.86-5.75-2.03-8.42-3.49c-2.42-1.64-4.66-3.53-6.67-5.66c-2.83-3.17-6.26-5.75-10.1-7.59c1.75-0.1,3.53-0.3,5.28-0.5
							c5.66-0.63,11.51-1.28,16.1,1.29s7.11,7.89,9.54,13.04c1.07,2.38,2.27,4.69,3.6,6.93C127.97,43.66,124.83,42.31,121.57,41.36
							 M23.18,47.76c1.11-6.44,2.17-12.53,6.1-16.45s10.01-4.98,16.45-6.1c3.25-0.49,6.46-1.19,9.62-2.12
							c-1.44,1.54-2.79,3.2-4.13,4.86c-2.09,2.78-4.46,5.34-7.09,7.62c-2.71,1.94-5.63,3.58-8.71,4.88
							c-4.63,1.79-8.84,4.53-12.36,8.04C23.1,48.24,23.14,48,23.18,47.76 M53.08,29.46c3.69-4.56,7.18-8.86,11.97-10.22
							s10.02,0.48,15.55,2.42c2.52,0.94,5.09,1.74,7.7,2.39c-3.37,0.87-6.61,2.18-9.65,3.88c-2.55,1.42-5.26,2.56-8.06,3.39
							c-2.99,0.59-6.04,0.86-9.08,0.8c-4.1-0.19-8.2,0.38-12.09,1.7C50.68,32.41,51.89,30.92,53.08,29.46 M67.57,16.16
							c5.16-3.69,10.5-7.51,16.37-7.51c5.87,0,11.2,3.81,16.37,7.51c2.47,1.84,5.05,3.52,7.73,5.03c-2.2,0.07-4.43,0.32-6.63,0.57
							c-3.3,0.5-6.64,0.64-9.97,0.41c-3.43-0.56-6.8-1.49-10.03-2.77c-4.48-1.95-9.32-2.96-14.21-2.97l0.39-0.27 M66.03,14
							c-2.94,2.28-6.11,4.24-9.48,5.82c-3.65,1.32-7.42,2.25-11.27,2.76c-6.57,1.14-13.36,2.31-17.89,6.84s-5.7,11.32-6.84,17.89
							c-0.52,3.84-1.44,7.62-2.76,11.27c-1.59,3.36-3.54,6.54-5.82,9.48c-3.93,5.51-8,11.2-8,17.92s4.07,12.41,8,17.92
							c2.28,2.94,4.24,6.12,5.82,9.48c1.32,3.65,2.25,7.42,2.76,11.27c1.14,6.57,2.31,13.36,6.84,17.89
							c4.52,4.53,11.32,5.7,17.89,6.84c3.84,0.52,7.62,1.45,11.27,2.77c3.36,1.59,6.54,3.54,9.48,5.82c5.51,3.93,11.2,8,17.93,8
							s12.41-4.07,17.92-8c2.94-2.28,6.11-4.24,9.48-5.82c3.65-1.32,7.43-2.25,11.27-2.77c6.57-1.14,13.36-2.31,17.89-6.84
							c4.52-4.53,5.7-11.32,6.84-17.89c0.52-3.84,1.45-7.62,2.76-11.27c1.59-3.36,3.54-6.54,5.83-9.48c3.93-5.51,8-11.2,8-17.92
							c0-6.72-4.07-12.42-8-17.92c-2.28-2.94-4.24-6.12-5.83-9.48c-1.32-3.65-2.24-7.42-2.76-11.27
							c-1.14-6.57-2.31-13.36-6.84-17.89c-4.53-4.53-11.32-5.7-17.89-6.84c-3.84-0.52-7.62-1.44-11.27-2.76
							c-3.36-1.59-6.54-3.54-9.48-5.82c-5.51-3.93-11.2-8-17.92-8C77.24,6,71.54,10.07,66.03,14"/>
					</defs>
					<clipPath id="SVGID_00000063603276297989546910000002256942244724057753_">
						<use xlink:href="#SVGID_1_"  style="overflow:visible;"/>
					</clipPath>
					<g id="Group_2" style="clip-path:url(#SVGID_00000063603276297989546910000002256942244724057753_);">
						
							<linearGradient id="Rectangle_2_00000019662539359418644890000012895794273213614997_" gradientUnits="userSpaceOnUse" x1="-2.478" y1="839.3921" x2="-2.4353" y2="839.3921" gradientTransform="matrix(59.997 0 0 -59.997 11.6975 50446.9727)">
							<stop  offset="0" style="stop-color:#BF8E44"/>
							<stop  offset="0.072" style="stop-color:#C69747"/>
							<stop  offset="0.192" style="stop-color:#DAB056"/>
							<stop  offset="0.344" style="stop-color:#F9D86A"/>
							<stop  offset="0.351" style="stop-color:#FCDB6C"/>
							<stop  offset="0.436" style="stop-color:#EBC560"/>
							<stop  offset="0.563" style="stop-color:#D7AD54"/>
							<stop  offset="0.697" style="stop-color:#CA9C49"/>
							<stop  offset="0.838" style="stop-color:#C09145"/>
							<stop  offset="1" style="stop-color:#BF8E44"/>
						</linearGradient>
						
							<rect id="Rectangle_2" x="3.97" y="5.98" style="fill:url(#Rectangle_2_00000019662539359418644890000012895794273213614997_);" width="159.98" height="159.98"/>
					</g>
				</g>
			</g>
		</g>
		
			<linearGradient id="Path_16_00000170261200052034724920000013559060328772253115_" gradientUnits="userSpaceOnUse" x1="2.226" y1="839.3201" x2="4.8924" y2="839.3201" gradientTransform="matrix(25.65 0 0 -25.65 -6.162 21615.6992)">
			<stop  offset="0" style="stop-color:#BF8E44"/>
			<stop  offset="0.072" style="stop-color:#C69747"/>
			<stop  offset="0.192" style="stop-color:#DAB056"/>
			<stop  offset="0.344" style="stop-color:#F9D86A"/>
			<stop  offset="0.351" style="stop-color:#FCDB6C"/>
			<stop  offset="0.436" style="stop-color:#EBC560"/>
			<stop  offset="0.563" style="stop-color:#D7AD54"/>
			<stop  offset="0.697" style="stop-color:#CA9C49"/>
			<stop  offset="0.838" style="stop-color:#C09145"/>
			<stop  offset="1" style="stop-color:#BF8E44"/>
		</linearGradient>
		<path id="Path_16" style="fill:url(#Path_16_00000170261200052034724920000013559060328772253115_);" d="M85.13,52.95
			c-18.89,0-34.2,15.31-34.2,34.2s15.31,34.2,34.2,34.2c18.89,0,34.2-15.31,34.2-34.2S104.02,52.95,85.13,52.95L85.13,52.95z
			 M85.13,109.87c-12.55,0-22.73-10.18-22.73-22.73s10.18-22.73,22.73-22.73c12.55,0,22.73,10.18,22.73,22.73c0,0,0,0,0,0
			C107.86,99.7,97.68,109.87,85.13,109.87z"/>
	</g>
</g>
<g class="st4">
	<path class="st5" d="M214.4,59.41c2.7,0,5.17,0.4,7.42,1.2c2.25,0.8,4.19,2.02,5.84,3.67c1.64,1.64,2.92,3.71,3.84,6.19
		c0.92,2.48,1.38,5.43,1.38,8.83c0,4.62-0.83,8.5-2.49,11.64c-1.66,3.15-3.95,5.53-6.86,7.13c-2.91,1.6-6.29,2.41-10.12,2.41h-16.78
		v-3.11l5.69-1.35l-0.88,1.29V62.75l0.94,1.29l-5.75-1.23v-3.11l11.79-0.29H214.4z M213.64,96.07c1.6,0,3.17-0.25,4.69-0.76
		c1.53-0.51,2.9-1.37,4.14-2.58c1.23-1.21,2.2-2.88,2.9-5.02c0.7-2.13,1.06-4.8,1.06-8.01c0-3.13-0.34-5.72-1.03-7.77
		c-0.68-2.05-1.6-3.67-2.76-4.87c-1.15-1.19-2.45-2.03-3.9-2.52c-1.45-0.49-2.93-0.73-4.46-0.73h-7.86l1-1v34.26l-1-1H213.64z"/>
	<path class="st5" d="M247.31,96.9l-0.53-0.71l4.93,1.17v3.11H237.1v-3.11l4.93-1.17l-0.59,0.71V73.26l0.53,0.53l-4.87-1.11v-3.11
		l10.21-0.35V96.9z M244.08,63.46c-1.06,0-1.93-0.33-2.61-1c-0.68-0.66-1.03-1.6-1.03-2.81c0-1.25,0.35-2.2,1.06-2.85
		c0.7-0.65,1.58-0.97,2.64-0.97c1.09,0,1.98,0.32,2.67,0.97c0.68,0.65,1.03,1.59,1.03,2.85c0,1.25-0.36,2.2-1.08,2.84
		C246.03,63.14,245.14,63.46,244.08,63.46z"/>
	<path class="st5" d="M270.77,69.56l12.61-0.41v3.11l-3.81,1.29l0.94-1l-10.03,28.04h-6.86l-9.09-27.86l0.94,0.82l-3.87-0.88v-3.11
		l13.43-0.41v3.11l-4.99,1.11l0.47-0.82l7.27,24.28h-0.53l7.86-24.05l0.41,0.59l-4.75-0.7V69.56z"/>
	<path class="st5" d="M298.28,101.06c-2.7,0-5.07-0.6-7.13-1.79s-3.66-2.95-4.81-5.28c-1.15-2.33-1.73-5.17-1.73-8.54
		c0-3.44,0.6-6.4,1.79-8.89c1.19-2.48,2.89-4.4,5.1-5.75c2.21-1.35,4.8-2.02,7.77-2.02c2.86,0,5.19,0.59,7.01,1.76
		c1.82,1.17,3.17,2.79,4.05,4.84c0.88,2.05,1.32,4.39,1.32,7.01c0,0.51-0.02,1.02-0.06,1.53s-0.1,1.1-0.18,1.76h-22.23v-4.05h16.95
		L305.62,82c0.04-1.6-0.16-3.07-0.59-4.4c-0.43-1.33-1.15-2.4-2.17-3.2c-1.02-0.8-2.37-1.2-4.05-1.2c-1.84,0-3.36,0.5-4.58,1.5
		c-1.21,1-2.11,2.36-2.7,4.08c-0.59,1.72-0.88,3.69-0.88,5.92c0,2.39,0.33,4.47,1,6.25c0.67,1.78,1.67,3.17,3.02,4.17
		c1.35,1,3.02,1.49,5.02,1.49c1.41,0,2.94-0.27,4.6-0.82c1.66-0.55,3.37-1.37,5.13-2.46l2.05,3.23c-2.19,1.52-4.41,2.66-6.66,3.4
		C302.58,100.69,300.39,101.06,298.28,101.06z"/>
	<path class="st5" d="M316.23,100.47v-3.11l5.05-1.17l-0.7,1V72.84l0.76,1.06l-5.1-1.23v-3.11l8.92-0.41l0.76,5.69l-0.76-0.23
		c1.76-1.84,3.49-3.27,5.19-4.28c1.7-1.02,3.53-1.53,5.49-1.53c1.25,0,2.58,0.2,3.99,0.59l-0.41,9.33h-3.58l-0.76-6.22l0.65,1.23
		c-0.27-0.08-0.56-0.14-0.85-0.17c-0.29-0.04-0.58-0.06-0.85-0.06c-1.45,0-2.87,0.44-4.25,1.32c-1.39,0.88-2.67,2-3.84,3.37
		l0.53-1.7v20.71l-0.76-1l6.22,1.17v3.11H316.23z"/>
	<path class="st5" d="M348.91,77.01c0,1.14,0.39,2.02,1.17,2.67c0.78,0.65,1.8,1.18,3.05,1.61c1.25,0.43,2.59,0.86,4.02,1.29
		c1.43,0.43,2.77,0.98,4.02,1.64c1.25,0.66,2.28,1.55,3.08,2.67c0.8,1.11,1.2,2.57,1.2,4.37c0,2.11-0.58,3.89-1.73,5.34
		c-1.15,1.45-2.73,2.55-4.72,3.31c-1.99,0.76-4.22,1.14-6.69,1.14c-1.45,0-2.97-0.12-4.58-0.35c-1.6-0.23-3.25-0.59-4.93-1.05
		l0.41-8.27h3.7l0.64,5.57l-0.59-0.7c0.86,0.23,1.79,0.42,2.79,0.56c1,0.14,1.91,0.21,2.73,0.21c1.21,0,2.36-0.18,3.43-0.53
		c1.08-0.35,1.95-0.89,2.64-1.61c0.68-0.72,1.03-1.61,1.03-2.67c0-1.17-0.4-2.1-1.2-2.79c-0.8-0.68-1.83-1.24-3.08-1.67
		c-1.25-0.43-2.57-0.86-3.96-1.29s-2.71-0.98-3.96-1.64c-1.25-0.66-2.27-1.54-3.05-2.64c-0.78-1.09-1.17-2.56-1.17-4.4
		c0-2.07,0.53-3.78,1.58-5.1c1.06-1.33,2.46-2.31,4.22-2.93c1.76-0.62,3.64-0.94,5.63-0.94c1.37,0,2.88,0.14,4.55,0.41
		c1.66,0.27,3.37,0.68,5.13,1.23l-0.29,7.1h-3.75l-0.88-4.75l0.82,0.94c-1.96-0.59-3.75-0.88-5.4-0.88c-1.72,0-3.13,0.37-4.22,1.11
		C349.45,74.7,348.91,75.72,348.91,77.01z"/>
	<path class="st5" d="M380.23,96.9l-0.53-0.71l4.93,1.17v3.11h-14.61v-3.11l4.93-1.17l-0.59,0.71V73.26l0.53,0.53l-4.87-1.11v-3.11
		l10.21-0.35V96.9z M377.01,63.46c-1.06,0-1.93-0.33-2.61-1c-0.68-0.66-1.03-1.6-1.03-2.81c0-1.25,0.35-2.2,1.06-2.85
		c0.7-0.65,1.58-0.97,2.64-0.97c1.09,0,1.98,0.32,2.67,0.97c0.68,0.65,1.03,1.59,1.03,2.85c0,1.25-0.36,2.2-1.08,2.84
		C378.95,63.14,378.06,63.46,377.01,63.46z"/>
	<path class="st5" d="M398.65,101.06c-2.27,0-4.02-0.69-5.25-2.08c-1.23-1.39-1.85-3.47-1.85-6.25V72.55l0.82,0.82h-5.87v-3.17
		l5.98-1.06l-0.94,1.11v-7.8l5.87-1v8.8l-0.7-0.88h9.09l-0.18,3.99h-8.92l0.7-0.82v19.36c0,1.64,0.3,2.84,0.91,3.58
		c0.61,0.74,1.5,1.11,2.67,1.11c0.67,0,1.4-0.11,2.2-0.32c0.8-0.21,1.67-0.54,2.61-0.97l1.17,3.34
		C404.01,100.26,401.23,101.06,398.65,101.06z"/>
	<path class="st5" d="M408.04,114.2l0.53-4.22c0.51,0.08,0.99,0.14,1.44,0.17c0.45,0.04,0.87,0.06,1.26,0.06
		c1.84,0,3.33-0.41,4.49-1.23c1.15-0.82,2.14-2.05,2.96-3.7c0.82-1.64,1.64-3.72,2.46-6.22l-0.18,2.11l-11.09-28.39l0.7,0.59
		l-3.69-0.7v-3.11l13.43-0.41v3.11l-4.87,0.94l0.35-0.59l8.33,23.93l-1.41-0.29l7.8-23.52l0.41,0.65l-4.81-0.7v-3.11l12.9-0.41v3.11
		l-3.99,1l0.94-0.59l-10.09,27.86c-0.74,2.03-1.53,3.91-2.35,5.63c-0.82,1.72-1.76,3.21-2.82,4.46c-1.06,1.25-2.32,2.22-3.78,2.9
		c-1.47,0.68-3.22,1.03-5.25,1.03C410.67,114.55,409.44,114.44,408.04,114.2z"/>
	<path class="st5" d="M499.49,62.52l-5.75,1.53l0.94-1.58v34.84l-0.94-1.29l5.75,1.35v3.11h-15.19v-3.11l5.87-1.35l-1.06,1.29V65.98
		l0.94,0.06L477.55,89.8l-3.87,0.23l-12.08-24.11l0.88-0.06v31.44l-0.76-1.17l5.63,1.23v3.11h-14.55v-3.11l5.69-1.35l-0.88,1.29
		V62.46l0.88,1.53l-5.69-1.17v-3.11l12.14-0.29l11.73,24.64h-0.82l12.14-24.34l11.5-0.29V62.52z"/>
	<path class="st5" d="M528.06,97.31l-0.88-1.23l5.28,1.23v3.11l-8.92,0.41l-0.82-5.63l0.47,0.18c-1.68,1.92-3.5,3.34-5.46,4.28
		c-1.96,0.94-3.85,1.41-5.69,1.41c-2.27,0-4.21-0.74-5.84-2.23c-1.62-1.48-2.43-3.71-2.43-6.69c0-2.27,0.49-4.04,1.47-5.31
		c0.98-1.27,2.35-2.18,4.11-2.73c1.76-0.55,3.83-0.82,6.22-0.82h7.16l-0.53,0.65v-5.04c0-2.03-0.53-3.49-1.58-4.37
		c-1.06-0.88-2.52-1.32-4.4-1.32c-0.98,0-2,0.1-3.08,0.29c-1.08,0.2-2.24,0.51-3.49,0.94l0.82-0.82l-0.65,5.22h-3.87l-0.47-7.8
		c2.39-0.74,4.59-1.3,6.6-1.67c2.01-0.37,3.88-0.56,5.6-0.56c3.28,0,5.84,0.72,7.66,2.17c1.82,1.45,2.73,3.74,2.73,6.86V97.31z
		 M509.69,91.73c0,1.68,0.41,2.92,1.23,3.73c0.82,0.8,1.86,1.2,3.11,1.2s2.63-0.4,4.14-1.2c1.51-0.8,2.96-1.87,4.37-3.2l-0.35,1.47
		v-7.27l0.53,0.59h-6.22c-2.58,0-4.36,0.39-5.34,1.17C510.18,89,509.69,90.17,509.69,91.73z"/>
	<path class="st5" d="M535.5,100.47v-3.11l5.05-1.17l-0.7,1V72.84l0.76,1.06l-5.1-1.23v-3.11l8.92-0.41l0.76,5.69l-0.76-0.23
		c1.76-1.84,3.49-3.27,5.19-4.28c1.7-1.02,3.53-1.53,5.49-1.53c1.25,0,2.58,0.2,3.99,0.59l-0.41,9.33h-3.58l-0.76-6.22l0.65,1.23
		c-0.27-0.08-0.56-0.14-0.85-0.17c-0.29-0.04-0.58-0.06-0.85-0.06c-1.45,0-2.87,0.44-4.25,1.32c-1.39,0.88-2.67,2-3.84,3.37
		l0.53-1.7v20.71l-0.76-1l6.22,1.17v3.11H535.5z"/>
	<path class="st5" d="M560.08,100.47v-3.11l5.22-1.23l-0.82,1.17V58.94l0.53,0.76l-4.93-1.11v-3.11l10.27-0.41v27.16l-1.06-0.88
		h7.92l-1.47,0.7l5.87-9.38l0.47,0.7l-4.58-0.7v-3.11l13.37-0.41v3.05l-5.16,1.11l1.64-1l-7.16,11.26v-1.64l8.39,15.19l-1-0.88
		l4.69,1.17v3.05h-8.04l-8.33-15.6l1.06,0.47h-7.68l1.06-0.53v12.49l-0.7-1.17l4.93,1.23v3.11H560.08z"/>
</g>
<rect x="195.32" y="119.14" class="st6" width="399.96" height="2.67"/>
</svg>
