<?xml version="1.0" encoding="UTF-8"?>
<!-- Generator: Adobe Illustrator 27.7.0, SVG Export Plug-In . SVG Version: 6.00 Build 0)  -->
<svg xmlns="http://www.w3.org/2000/svg" xmlns:xlink="http://www.w3.org/1999/xlink" version="1.1" id="Layer_1" x="0px" y="0px" viewBox="0 0 420.4 64.7" style="enable-background:new 0 0 420.4 64.7;" xml:space="preserve">
<style type="text/css">
	.st0{enable-background:new    ;}
	.st1{fill:#010202;}
	.st2{fill:#C4A358;}
	.st3{fill:#FFFFFF;}
</style>
<g class="st0">
	<path class="st3" d="M1,2.2c0-0.4,0.3-0.8,0.8-0.8h8.8c4.9,0,9,4,9,8.8c0,5-4,9-8.9,9H4v9.4c0,0.4-0.4,0.8-0.8,0.8H1.8   C1.3,29.4,1,29,1,28.6V2.2z M10.4,16.3c3.3,0,6.1-2.7,6.1-6.1c0-3.2-2.8-5.7-6.1-5.7H4v11.8H10.4z"></path>
	<path class="st3" d="M40.8,2.2c0-0.4,0.3-0.8,0.8-0.8h15.8c0.4,0,0.8,0.4,0.8,0.8v1.2c0,0.4-0.3,0.8-0.8,0.8H43.9v9.8h11.5   c0.4,0,0.8,0.4,0.8,0.8v1.2c0,0.4-0.4,0.8-0.8,0.8H43.9v10.2h13.4c0.4,0,0.8,0.4,0.8,0.8v1.2c0,0.4-0.3,0.8-0.8,0.8H41.6   c-0.4,0-0.8-0.4-0.8-0.8V2.2z"></path>
	<path class="st3" d="M84.5,4.1h-7c-0.4,0-0.8-0.4-0.8-0.8V2.2c0-0.4,0.3-0.8,0.8-0.8h17c0.4,0,0.8,0.4,0.8,0.8v1.2   c0,0.4-0.3,0.8-0.8,0.8h-7v24.6c0,0.4-0.4,0.8-0.8,0.8h-1.5c-0.4,0-0.8-0.4-0.8-0.8V4.1z"></path>
	<path class="st3" d="M115.6,2.2c0-0.4,0.3-0.8,0.8-0.8h15.8c0.4,0,0.8,0.4,0.8,0.8v1.2c0,0.4-0.3,0.8-0.8,0.8h-13.4v9.8h11.5   c0.4,0,0.8,0.4,0.8,0.8v1.2c0,0.4-0.4,0.8-0.8,0.8h-11.5v10.2h13.4c0.4,0,0.8,0.4,0.8,0.8v1.2c0,0.4-0.3,0.8-0.8,0.8h-15.8   c-0.4,0-0.8-0.4-0.8-0.8V2.2z"></path>
	<path class="st3" d="M155.3,2.2c0-0.4,0.3-0.8,0.8-0.8h10.4c4.8,0,8.7,3.8,8.7,8.5c0,3.7-2.4,6.8-5.9,8.2l5.5,10.2   c0.3,0.5,0,1.2-0.7,1.2h-2c-0.4,0-0.6-0.2-0.6-0.4L166,18.4h-7.6v10.2c0,0.4-0.4,0.8-0.8,0.8h-1.6c-0.4,0-0.8-0.4-0.8-0.8V2.2z    M166.2,15.8c3.1,0,5.8-2.6,5.8-5.8c0-3-2.7-5.6-5.8-5.6h-7.8v11.5H166.2z"></path>
	<path class="st3" d="M235,1c4,0,7,1.4,9.7,3.7c0.3,0.3,0.4,0.8,0,1.1l-1.1,1.1c-0.3,0.4-0.6,0.4-1,0c-2.1-1.8-4.9-3-7.6-3   c-6.3,0-11.2,5.3-11.2,11.5c0,6.2,4.8,11.5,11.2,11.5c3.5,0,5.5-1.4,7.6-3c0.4-0.3,0.7-0.3,1-0.1l1.2,1.1c0.3,0.2,0.2,0.8,0,1.1   c-2.7,2.6-6.2,3.9-9.7,3.9c-8,0-14.4-6.4-14.4-14.4C220.6,7.4,227,1,235,1z"></path>
	<path class="st3" d="M279.1,1c8,0,14.4,6.4,14.4,14.4c0,8-6.4,14.4-14.4,14.4s-14.4-6.4-14.4-14.4C264.8,7.4,271.1,1,279.1,1z    M279.1,27c6.4,0,11.6-5.2,11.6-11.6c0-6.4-5.2-11.6-11.6-11.6s-11.6,5.3-11.6,11.6C267.6,21.8,272.8,27,279.1,27z"></path>
	<path class="st3" d="M315.6,2.2c0-0.4,0.3-0.8,0.8-0.8h10.4c4.8,0,8.7,3.8,8.7,8.5c0,3.7-2.4,6.8-5.9,8.2l5.5,10.2   c0.3,0.5,0,1.2-0.7,1.2h-2c-0.4,0-0.6-0.2-0.6-0.4l-5.3-10.6h-7.6v10.2c0,0.4-0.4,0.8-0.8,0.8h-1.6c-0.4,0-0.8-0.4-0.8-0.8V2.2z    M326.6,15.8c3.1,0,5.8-2.6,5.8-5.8c0-3-2.7-5.6-5.8-5.6h-7.8v11.5H326.6z"></path>
	<path class="st3" d="M358.1,2.2c0-0.4,0.3-0.8,0.8-0.8h10.4c4.8,0,8.7,3.8,8.7,8.5c0,3.7-2.4,6.8-5.9,8.2l5.5,10.2   c0.3,0.5,0,1.2-0.7,1.2h-2c-0.4,0-0.6-0.2-0.6-0.4l-5.3-10.6h-7.6v10.2c0,0.4-0.4,0.8-0.8,0.8h-1.6c-0.4,0-0.8-0.4-0.8-0.8V2.2z    M369,15.8c3.1,0,5.8-2.6,5.8-5.8c0-3-2.7-5.6-5.8-5.6h-7.8v11.5H369z"></path>
	<path class="st3" d="M406.2,15.9l-9.6-13.4c-0.3-0.5,0-1.2,0.6-1.2h1.9c0.3,0,0.5,0.2,0.6,0.4l8.1,11.2l8.1-11.2   c0.1-0.2,0.4-0.4,0.6-0.4h1.9c0.6,0,1,0.6,0.6,1.2l-9.8,13.3v12.8c0,0.4-0.4,0.8-0.8,0.8h-1.6c-0.4,0-0.8-0.4-0.8-0.8V15.9z"></path>
</g>
<path class="st2" d="M95.5,47.6c0-0.2,0.2-0.4,0.4-0.4h4.6c2.6,0,4.7,2.1,4.7,4.6c0,2.6-2.1,4.7-4.6,4.7h-3.4v4.9  c0,0.2-0.2,0.4-0.4,0.4h-0.8c-0.2,0-0.4-0.2-0.4-0.4V47.6z M100.4,55c1.7,0,3.2-1.4,3.2-3.2c0-1.7-1.5-3-3.2-3h-3.3V55H100.4z"></path>
<path class="st2" d="M116.2,47.6c0-0.2,0.2-0.4,0.4-0.4h5.4c2.5,0,4.5,2,4.5,4.4c0,1.9-1.3,3.5-3.1,4.3l2.9,5.3  c0.1,0.3,0,0.6-0.4,0.6h-1.1c-0.2,0-0.3-0.1-0.3-0.2l-2.8-5.5h-4v5.3c0,0.2-0.2,0.4-0.4,0.4h-0.8c-0.2,0-0.4-0.2-0.4-0.4V47.6z   M121.9,54.8c1.6,0,3-1.3,3-3c0-1.6-1.4-2.9-3-2.9h-4v6H121.9z"></path>
<path class="st2" d="M144.8,47c4.2,0,7.5,3.4,7.5,7.5s-3.3,7.5-7.5,7.5c-4.2,0-7.5-3.3-7.5-7.5S140.6,47,144.8,47z M144.8,60.6  c3.3,0,6-2.7,6-6c0-3.3-2.7-6.1-6-6.1c-3.3,0-6,2.8-6,6.1C138.7,57.9,141.4,60.6,144.8,60.6z"></path>
<path class="st2" d="M163.8,47.6c0-0.2,0.2-0.4,0.4-0.4h4.7c4,0,7.3,3.3,7.3,7.3c0,4-3.3,7.3-7.3,7.3h-4.7c-0.2,0-0.4-0.2-0.4-0.4  V47.6z M168.5,60.4c3.4,0,5.9-2.4,5.9-5.9c0-3.4-2.5-5.9-5.9-5.9h-3.1v11.7H168.5z"></path>
<path class="st2" d="M217.4,47c2.1,0,3.6,0.7,5,1.9c0.2,0.2,0.2,0.4,0,0.6l-0.6,0.6c-0.2,0.2-0.3,0.2-0.5,0c-1.1-0.9-2.6-1.6-4-1.6  c-3.3,0-5.8,2.8-5.8,6c0,3.2,2.5,6,5.8,6c1.8,0,2.9-0.7,4-1.6c0.2-0.2,0.4-0.1,0.5-0.1l0.6,0.6c0.2,0.1,0.1,0.4,0,0.6  c-1.4,1.4-3.2,2-5.1,2c-4.2,0-7.5-3.3-7.5-7.5S213.3,47,217.4,47z"></path>
<path class="st2" d="M187.4,47.6c0-0.2,0.2-0.4,0.4-0.4h0.8c0.2,0,0.4,0.2,0.4,0.4v8.7c0,2.4,1.5,4.2,3.9,4.2c2.5,0,4-1.8,4-4.2  v-8.7c0-0.2,0.2-0.4,0.4-0.4h0.8c0.2,0,0.4,0.2,0.4,0.4v8.8c0,3.2-2.3,5.6-5.5,5.6c-3.3,0-5.5-2.4-5.5-5.6V47.6z"></path>
<path class="st2" d="M236.1,48.7h-3.6c-0.2,0-0.4-0.2-0.4-0.4v-0.6c0-0.2,0.2-0.4,0.4-0.4h8.8c0.2,0,0.4,0.2,0.4,0.4v0.6  c0,0.2-0.2,0.4-0.4,0.4h-3.6v12.8c0,0.2-0.2,0.4-0.4,0.4h-0.8c-0.2,0-0.4-0.2-0.4-0.4V48.7z"></path>
<path class="st2" d="M252.3,47.6c0-0.2,0.2-0.4,0.4-0.4h0.8c0.2,0,0.4,0.2,0.4,0.4v13.8c0,0.2-0.2,0.4-0.4,0.4h-0.8  c-0.2,0-0.4-0.2-0.4-0.4V47.6z"></path>
<path class="st2" d="M272.9,47c4.2,0,7.5,3.4,7.5,7.5s-3.3,7.5-7.5,7.5s-7.5-3.3-7.5-7.5S268.7,47,272.9,47z M272.9,60.6  c3.3,0,6-2.7,6-6c0-3.3-2.7-6.1-6-6.1c-3.3,0-6,2.8-6,6.1C266.9,57.9,269.6,60.6,272.9,60.6z"></path>
<path class="st2" d="M291.9,47.4c0-0.2,0.2-0.4,0.4-0.4h0.5l9.4,11.7c0,0,0,0,0,0V47.6c0-0.2,0.2-0.4,0.4-0.4h0.7  c0.2,0,0.4,0.2,0.4,0.4v14c0,0.2-0.2,0.4-0.4,0.4H303l-9.6-11.9h0v11.3c0,0.2-0.2,0.4-0.4,0.4h-0.7c-0.2,0-0.4-0.2-0.4-0.4V47.4z"></path>
<path class="st2" d="M315.5,59.6c0.1-0.1,0.2-0.3,0.3-0.4c0.2-0.3,0.4-0.4,0.7-0.2c0.1,0.1,1.7,1.6,3.5,1.6c1.7,0,2.8-1.1,2.8-2.3  c0-1.4-1.3-2.3-3.6-3.3c-2.3-1-3.7-1.9-3.7-4.3c0-1.4,1.1-3.7,4.4-3.7c2,0,3.6,1.1,3.6,1.1c0.1,0.1,0.4,0.3,0.1,0.7  c-0.1,0.1-0.2,0.3-0.3,0.4c-0.2,0.3-0.4,0.4-0.7,0.2c-0.1-0.1-1.5-1-2.7-1c-2.2,0-2.9,1.4-2.9,2.3c0,1.4,1.1,2.2,2.8,2.9  c2.8,1.1,4.6,2.2,4.6,4.6c0,2.2-2.1,3.7-4.5,3.7c-2.5,0-4.1-1.4-4.4-1.7C315.4,60.2,315.2,60,315.5,59.6z"></path>
<rect x="1" y="53.8" class="st2" width="65" height="0.8"></rect>
<rect x="354.2" y="53.8" class="st2" width="65" height="0.8"></rect>
</svg>
